<svg width="341" height="74" viewBox="0 0 341 74" fill="none" xmlns="http://www.w3.org/2000/svg">
<path d="M40.1614 5.4518L32.1636 5.4518L15.8986 51.3014L17.9555 54.5626L23.1636 55.4526L40.1614 5.4518Z" fill="url(#paint0_linear_388_410)"/>
<path d="M0.164551 5.45264L8.16455 5.45264L24.6647 50.9534L23.1647 55.4535L17.1645 55.4535L0.164551 5.45264Z" fill="url(#paint1_linear_388_410)"/>
<rect x="46.1982" y="4.58691" width="9" height="50" fill="url(#paint2_linear_388_410)"/>
<rect x="61.1982" y="4.58691" width="9" height="50" fill="url(#paint3_linear_388_410)"/>
<rect x="72.1982" y="13.5869" width="9" height="17" transform="rotate(-90 72.1982 13.5869)" fill="url(#paint4_linear_388_410)"/>
<rect x="72.1982" y="34.5869" width="9" height="17" transform="rotate(-90 72.1982 34.5869)" fill="url(#paint5_linear_388_410)"/>
<rect x="72.1982" y="54.5869" width="9" height="17" transform="rotate(-90 72.1982 54.5869)" fill="url(#paint6_linear_388_410)"/>
<rect width="9" height="50" transform="matrix(1 0 0 -1 95.1982 54.5869)" fill="url(#paint7_linear_388_410)"/>
<rect width="9" height="17" transform="matrix(0 1 1 0 106.198 24.5869)" fill="url(#paint8_linear_388_410)"/>
<rect width="9" height="17" transform="matrix(0 1 1 0 106.198 4.58691)" fill="url(#paint9_linear_388_410)"/>
<path d="M135.816 16L130.92 4.8H133.176L137.544 14.928H136.248L140.664 4.8H142.744L137.864 16H135.816ZM141.743 16L146.783 4.8H148.831L153.887 16H151.711L147.375 5.904H148.207L143.887 16H141.743ZM144.063 13.408L144.623 11.776H150.671L151.231 13.408H144.063ZM158.543 16.16C157.668 16.16 156.831 16.0373 156.031 15.792C155.231 15.536 154.596 15.2107 154.127 14.816L154.847 13.2C155.295 13.552 155.85 13.8453 156.511 14.08C157.172 14.3147 157.85 14.432 158.543 14.432C159.13 14.432 159.604 14.368 159.967 14.24C160.33 14.112 160.596 13.9413 160.767 13.728C160.938 13.504 161.023 13.2533 161.023 12.976C161.023 12.6347 160.9 12.3627 160.655 12.16C160.41 11.9467 160.09 11.7813 159.695 11.664C159.311 11.536 158.879 11.4187 158.399 11.312C157.93 11.2053 157.455 11.0827 156.975 10.944C156.506 10.7947 156.074 10.608 155.679 10.384C155.295 10.1493 154.98 9.84 154.735 9.456C154.49 9.072 154.367 8.58133 154.367 7.984C154.367 7.376 154.527 6.82133 154.847 6.32C155.178 5.808 155.674 5.40267 156.335 5.104C157.007 4.79467 157.855 4.64 158.879 4.64C159.551 4.64 160.218 4.72533 160.879 4.896C161.54 5.06667 162.116 5.312 162.607 5.632L161.951 7.248C161.45 6.94933 160.932 6.73067 160.399 6.592C159.866 6.44267 159.354 6.368 158.863 6.368C158.287 6.368 157.818 6.43733 157.455 6.576C157.103 6.71467 156.842 6.896 156.671 7.12C156.511 7.344 156.431 7.6 156.431 7.888C156.431 8.22933 156.548 8.50667 156.783 8.72C157.028 8.92267 157.343 9.08267 157.727 9.2C158.122 9.31733 158.559 9.43467 159.039 9.552C159.519 9.65867 159.994 9.78133 160.463 9.92C160.943 10.0587 161.375 10.24 161.759 10.464C162.154 10.688 162.468 10.992 162.703 11.376C162.948 11.76 163.071 12.2453 163.071 12.832C163.071 13.4293 162.906 13.984 162.575 14.496C162.255 14.9973 161.759 15.4027 161.087 15.712C160.415 16.0107 159.567 16.16 158.543 16.16ZM167.009 16V6.56H163.297V4.8H172.801V6.56H169.089V16H167.009ZM171.976 16L177.016 4.8H179.064L184.12 16H181.944L177.608 5.904H178.44L174.12 16H171.976ZM174.296 13.408L174.856 11.776H180.904L181.464 13.408H174.296ZM188.022 16L183.126 4.8H185.382L189.75 14.928H188.454L192.87 4.8H194.95L190.07 16H188.022ZM200.308 16V4.8H202.388V16H200.308ZM205.178 16V4.8H206.89L213.914 13.424H213.066V4.8H215.13V16H213.418L206.394 7.376H207.242V16H205.178ZM223.075 16.16C222.222 16.16 221.427 16.0213 220.691 15.744C219.966 15.456 219.331 15.056 218.787 14.544C218.254 14.0213 217.838 13.408 217.539 12.704C217.24 12 217.091 11.232 217.091 10.4C217.091 9.568 217.24 8.8 217.539 8.096C217.838 7.392 218.259 6.784 218.803 6.272C219.347 5.74933 219.982 5.34933 220.707 5.072C221.432 4.784 222.227 4.64 223.091 4.64C224.008 4.64 224.846 4.8 225.603 5.12C226.36 5.42933 227 5.89333 227.523 6.512L226.179 7.776C225.774 7.33867 225.32 7.01333 224.819 6.8C224.318 6.576 223.774 6.464 223.187 6.464C222.6 6.464 222.062 6.56 221.571 6.752C221.091 6.944 220.67 7.216 220.307 7.568C219.955 7.92 219.678 8.336 219.475 8.816C219.283 9.296 219.187 9.824 219.187 10.4C219.187 10.976 219.283 11.504 219.475 11.984C219.678 12.464 219.955 12.88 220.307 13.232C220.67 13.584 221.091 13.856 221.571 14.048C222.062 14.24 222.6 14.336 223.187 14.336C223.774 14.336 224.318 14.2293 224.819 14.016C225.32 13.792 225.774 13.456 226.179 13.008L227.523 14.288C227 14.896 226.36 15.36 225.603 15.68C224.846 16 224.003 16.16 223.075 16.16ZM234.076 16.16C232.54 16.16 231.335 15.728 230.46 14.864C229.596 14 229.164 12.752 229.164 11.12V4.8H231.244V11.04C231.244 12.192 231.49 13.0293 231.98 13.552C232.482 14.0747 233.186 14.336 234.092 14.336C234.999 14.336 235.698 14.0747 236.188 13.552C236.679 13.0293 236.924 12.192 236.924 11.04V4.8H238.972V11.12C238.972 12.752 238.535 14 237.66 14.864C236.796 15.728 235.602 16.16 234.076 16.16ZM241.645 16V4.8H246.893C248.237 4.8 249.261 5.06667 249.965 5.6C250.669 6.12267 251.021 6.82667 251.021 7.712C251.021 8.30933 250.883 8.82133 250.605 9.248C250.328 9.664 249.955 9.98933 249.485 10.224C249.027 10.448 248.525 10.56 247.981 10.56L248.269 9.984C248.899 9.984 249.464 10.1013 249.965 10.336C250.467 10.56 250.861 10.8907 251.149 11.328C251.448 11.7653 251.597 12.3093 251.597 12.96C251.597 13.92 251.229 14.6667 250.493 15.2C249.757 15.7333 248.664 16 247.213 16H241.645ZM243.725 14.368H247.085C247.864 14.368 248.461 14.24 248.877 13.984C249.293 13.728 249.501 13.3173 249.501 12.752C249.501 12.1973 249.293 11.792 248.877 11.536C248.461 11.2693 247.864 11.136 247.085 11.136H243.565V9.52H246.669C247.395 9.52 247.949 9.392 248.333 9.136C248.728 8.88 248.925 8.496 248.925 7.984C248.925 7.46133 248.728 7.072 248.333 6.816C247.949 6.56 247.395 6.432 246.669 6.432H243.725V14.368ZM251.993 16L257.033 4.8H259.081L264.137 16H261.961L257.625 5.904H258.457L254.137 16H251.993ZM254.313 13.408L254.873 11.776H260.921L261.481 13.408H254.313ZM267.031 16V6.56H263.319V4.8H272.823V6.56H269.111V16H267.031ZM276.064 9.456H281.632V11.168H276.064V9.456ZM276.224 14.256H282.544V16H274.144V4.8H282.32V6.544H276.224V14.256ZM283.138 16L287.858 9.504V11.072L283.362 4.8H285.714L289.058 9.44L288.098 9.456L291.41 4.8H293.666L289.202 10.96V9.456L293.954 16H291.554L288.034 11.072H288.978L285.506 16H283.138ZM297.949 16L302.989 4.8H305.037L310.093 16H307.917L303.581 5.904H304.413L300.093 16H297.949ZM300.269 13.408L300.829 11.776H306.877L307.437 13.408H300.269ZM311.278 16V4.8H312.99L320.014 13.424H319.166V4.8H321.23V16H319.518L312.494 7.376H313.342V16H311.278ZM323.991 16V4.8H328.887C330.103 4.8 331.17 5.03467 332.087 5.504C333.004 5.97333 333.719 6.624 334.231 7.456C334.743 8.288 334.999 9.26933 334.999 10.4C334.999 11.52 334.743 12.5013 334.231 13.344C333.719 14.176 333.004 14.8267 332.087 15.296C331.17 15.7653 330.103 16 328.887 16H323.991ZM326.071 14.24H328.791C329.634 14.24 330.359 14.08 330.967 13.76C331.586 13.44 332.06 12.992 332.391 12.416C332.732 11.84 332.903 11.168 332.903 10.4C332.903 9.62133 332.732 8.94933 332.391 8.384C332.06 7.808 331.586 7.36 330.967 7.04C330.359 6.72 329.634 6.56 328.791 6.56H326.071V14.24ZM134.424 29.456H139.992V31.168H134.424V29.456ZM134.584 34.256H140.904V36H132.504V24.8H140.68V26.544H134.584V34.256ZM142.983 36V24.8H144.695L151.719 33.424H150.871V24.8H152.935V36H151.223L144.199 27.376H145.047V36H142.983ZM157.968 36V26.56H154.256V24.8H163.76V26.56H160.048V36H157.968ZM165.081 36V24.8H169.689C170.681 24.8 171.529 24.96 172.233 25.28C172.948 25.6 173.497 26.0587 173.881 26.656C174.265 27.2533 174.457 27.9627 174.457 28.784C174.457 29.6053 174.265 30.3147 173.881 30.912C173.497 31.4987 172.948 31.952 172.233 32.272C171.529 32.5813 170.681 32.736 169.689 32.736H166.233L167.161 31.792V36H165.081ZM172.409 36L169.577 31.936H171.801L174.649 36H172.409ZM167.161 32.016L166.233 31.024H169.593C170.51 31.024 171.198 30.8267 171.657 30.432C172.126 30.0373 172.361 29.488 172.361 28.784C172.361 28.0693 172.126 27.52 171.657 27.136C171.198 26.752 170.51 26.56 169.593 26.56H166.233L167.161 25.536V32.016ZM178.464 29.456H184.032V31.168H178.464V29.456ZM178.624 34.256H184.944V36H176.544V24.8H184.72V26.544H178.624V34.256ZM187.023 36V24.8H191.631C192.623 24.8 193.471 24.96 194.175 25.28C194.889 25.6 195.439 26.0587 195.823 26.656C196.207 27.2533 196.399 27.9627 196.399 28.784C196.399 29.6053 196.207 30.3147 195.823 30.912C195.439 31.5093 194.889 31.968 194.175 32.288C193.471 32.608 192.623 32.768 191.631 32.768H188.175L189.103 31.792V36H187.023ZM189.103 32.016L188.175 31.008H191.535C192.452 31.008 193.14 30.816 193.599 30.432C194.068 30.0373 194.303 29.488 194.303 28.784C194.303 28.0693 194.068 27.52 193.599 27.136C193.14 26.752 192.452 26.56 191.535 26.56H188.175L189.103 25.536V32.016ZM198.236 36V24.8H202.844C203.836 24.8 204.684 24.96 205.388 25.28C206.103 25.6 206.652 26.0587 207.036 26.656C207.42 27.2533 207.612 27.9627 207.612 28.784C207.612 29.6053 207.42 30.3147 207.036 30.912C206.652 31.4987 206.103 31.952 205.388 32.272C204.684 32.5813 203.836 32.736 202.844 32.736H199.388L200.316 31.792V36H198.236ZM205.564 36L202.732 31.936H204.956L207.804 36H205.564ZM200.316 32.016L199.388 31.024H202.748C203.665 31.024 204.353 30.8267 204.812 30.432C205.281 30.0373 205.516 29.488 205.516 28.784C205.516 28.0693 205.281 27.52 204.812 27.136C204.353 26.752 203.665 26.56 202.748 26.56H199.388L200.316 25.536V32.016ZM211.619 29.456H217.187V31.168H211.619V29.456ZM211.779 34.256H218.099V36H209.699V24.8H217.875V26.544H211.779V34.256ZM220.178 36V24.8H221.89L228.914 33.424H228.066V24.8H230.13V36H228.418L221.394 27.376H222.242V36H220.178ZM234.811 29.456H240.379V31.168H234.811V29.456ZM234.971 34.256H241.291V36H232.891V24.8H241.067V26.544H234.971V34.256ZM248.186 36.16C246.65 36.16 245.444 35.728 244.57 34.864C243.706 34 243.274 32.752 243.274 31.12V24.8H245.354V31.04C245.354 32.192 245.599 33.0293 246.09 33.552C246.591 34.0747 247.295 34.336 248.202 34.336C249.108 34.336 249.807 34.0747 250.298 33.552C250.788 33.0293 251.034 32.192 251.034 31.04V24.8H253.082V31.12C253.082 32.752 252.644 34 251.77 34.864C250.906 35.728 249.711 36.16 248.186 36.16ZM255.755 36V24.8H260.363C261.355 24.8 262.203 24.96 262.907 25.28C263.621 25.6 264.171 26.0587 264.555 26.656C264.939 27.2533 265.131 27.9627 265.131 28.784C265.131 29.6053 264.939 30.3147 264.555 30.912C264.171 31.4987 263.621 31.952 262.907 32.272C262.203 32.5813 261.355 32.736 260.363 32.736H256.907L257.835 31.792V36H255.755ZM263.083 36L260.251 31.936H262.475L265.323 36H263.083ZM257.835 32.016L256.907 31.024H260.267C261.184 31.024 261.872 30.8267 262.331 30.432C262.8 30.0373 263.035 29.488 263.035 28.784C263.035 28.0693 262.8 27.52 262.331 27.136C261.872 26.752 261.184 26.56 260.267 26.56H256.907L257.835 25.536V32.016ZM270.69 36.16C269.815 36.16 268.978 36.0373 268.178 35.792C267.378 35.536 266.743 35.2107 266.274 34.816L266.994 33.2C267.442 33.552 267.996 33.8453 268.658 34.08C269.319 34.3147 269.996 34.432 270.69 34.432C271.276 34.432 271.751 34.368 272.114 34.24C272.476 34.112 272.743 33.9413 272.914 33.728C273.084 33.504 273.17 33.2533 273.17 32.976C273.17 32.6347 273.047 32.3627 272.802 32.16C272.556 31.9467 272.236 31.7813 271.842 31.664C271.458 31.536 271.026 31.4187 270.546 31.312C270.076 31.2053 269.602 31.0827 269.122 30.944C268.652 30.7947 268.22 30.608 267.826 30.384C267.442 30.1493 267.127 29.84 266.882 29.456C266.636 29.072 266.514 28.5813 266.514 27.984C266.514 27.376 266.674 26.8213 266.994 26.32C267.324 25.808 267.82 25.4027 268.482 25.104C269.154 24.7947 270.002 24.64 271.026 24.64C271.698 24.64 272.364 24.7253 273.026 24.896C273.687 25.0667 274.263 25.312 274.754 25.632L274.098 27.248C273.596 26.9493 273.079 26.7307 272.546 26.592C272.012 26.4427 271.5 26.368 271.01 26.368C270.434 26.368 269.964 26.4373 269.602 26.576C269.25 26.7147 268.988 26.896 268.818 27.12C268.658 27.344 268.578 27.6 268.578 27.888C268.578 28.2293 268.695 28.5067 268.93 28.72C269.175 28.9227 269.49 29.0827 269.874 29.2C270.268 29.3173 270.706 29.4347 271.186 29.552C271.666 29.6587 272.14 29.7813 272.61 29.92C273.09 30.0587 273.522 30.24 273.906 30.464C274.3 30.688 274.615 30.992 274.85 31.376C275.095 31.76 275.218 32.2453 275.218 32.832C275.218 33.4293 275.052 33.984 274.722 34.496C274.402 34.9973 273.906 35.4027 273.234 35.712C272.562 36.0107 271.714 36.16 270.69 36.16ZM284.912 24.8H286.992V36H284.912V24.8ZM279.12 36H277.04V24.8H279.12V36ZM285.072 31.2H278.944V29.424H285.072V31.2ZM289.753 36V24.8H291.833V36H289.753ZM294.623 36V24.8H299.231C300.223 24.8 301.071 24.96 301.775 25.28C302.489 25.6 303.039 26.0587 303.423 26.656C303.807 27.2533 303.999 27.9627 303.999 28.784C303.999 29.6053 303.807 30.3147 303.423 30.912C303.039 31.5093 302.489 31.968 301.775 32.288C301.071 32.608 300.223 32.768 299.231 32.768H295.775L296.703 31.792V36H294.623ZM296.703 32.016L295.775 31.008H299.135C300.052 31.008 300.74 30.816 301.199 30.432C301.668 30.0373 301.903 29.488 301.903 28.784C301.903 28.0693 301.668 27.52 301.199 27.136C300.74 26.752 300.052 26.56 299.135 26.56H295.775L296.703 25.536V32.016ZM134.408 49.952H139.992V51.712H134.408V49.952ZM134.584 56H132.504V44.8H140.68V46.544H134.584V56ZM147.575 56.16C146.7 56.16 145.895 56.016 145.159 55.728C144.423 55.44 143.783 55.04 143.239 54.528C142.695 54.0053 142.273 53.3973 141.975 52.704C141.676 52 141.527 51.232 141.527 50.4C141.527 49.568 141.676 48.8053 141.975 48.112C142.273 47.408 142.695 46.8 143.239 46.288C143.783 45.7653 144.423 45.36 145.159 45.072C145.895 44.784 146.695 44.64 147.559 44.64C148.433 44.64 149.233 44.784 149.959 45.072C150.695 45.36 151.335 45.7653 151.879 46.288C152.423 46.8 152.844 47.408 153.143 48.112C153.441 48.8053 153.591 49.568 153.591 50.4C153.591 51.232 153.441 52 153.143 52.704C152.844 53.408 152.423 54.016 151.879 54.528C151.335 55.04 150.695 55.44 149.959 55.728C149.233 56.016 148.439 56.16 147.575 56.16ZM147.559 54.336C148.124 54.336 148.647 54.24 149.127 54.048C149.607 53.856 150.023 53.584 150.375 53.232C150.727 52.8693 150.999 52.4533 151.191 51.984C151.393 51.504 151.495 50.976 151.495 50.4C151.495 49.824 151.393 49.3013 151.191 48.832C150.999 48.352 150.727 47.936 150.375 47.584C150.023 47.2213 149.607 46.944 149.127 46.752C148.647 46.56 148.124 46.464 147.559 46.464C146.993 46.464 146.471 46.56 145.991 46.752C145.521 46.944 145.105 47.2213 144.743 47.584C144.391 47.936 144.113 48.352 143.911 48.832C143.719 49.3013 143.623 49.824 143.623 50.4C143.623 50.9653 143.719 51.488 143.911 51.968C144.113 52.448 144.391 52.8693 144.743 53.232C145.095 53.584 145.511 53.856 145.991 54.048C146.471 54.24 146.993 54.336 147.559 54.336ZM160.371 56.16C158.835 56.16 157.63 55.728 156.755 54.864C155.891 54 155.459 52.752 155.459 51.12V44.8H157.539V51.04C157.539 52.192 157.785 53.0293 158.275 53.552C158.777 54.0747 159.481 54.336 160.387 54.336C161.294 54.336 161.993 54.0747 162.483 53.552C162.974 53.0293 163.219 52.192 163.219 51.04V44.8H165.267V51.12C165.267 52.752 164.83 54 163.955 54.864C163.091 55.728 161.897 56.16 160.371 56.16ZM167.94 56V44.8H169.652L176.676 53.424H175.828V44.8H177.892V56H176.18L169.156 47.376H170.004V56H167.94ZM180.653 56V44.8H185.549C186.765 44.8 187.832 45.0347 188.749 45.504C189.667 45.9733 190.381 46.624 190.893 47.456C191.405 48.288 191.661 49.2693 191.661 50.4C191.661 51.52 191.405 52.5013 190.893 53.344C190.381 54.176 189.667 54.8267 188.749 55.296C187.832 55.7653 186.765 56 185.549 56H180.653ZM182.733 54.24H185.453C186.296 54.24 187.021 54.08 187.629 53.76C188.248 53.44 188.723 52.992 189.053 52.416C189.395 51.84 189.565 51.168 189.565 50.4C189.565 49.6213 189.395 48.9493 189.053 48.384C188.723 47.808 188.248 47.36 187.629 47.04C187.021 46.72 186.296 46.56 185.453 46.56H182.733V54.24ZM191.892 56L196.932 44.8H198.98L204.036 56H201.86L197.524 45.904H198.356L194.036 56H191.892ZM194.212 53.408L194.772 51.776H200.82L201.38 53.408H194.212ZM206.93 56V46.56H203.218V44.8H212.722V46.56H209.01V56H206.93ZM214.043 56V44.8H216.123V56H214.043ZM224.16 56.16C223.285 56.16 222.48 56.016 221.744 55.728C221.008 55.44 220.368 55.04 219.824 54.528C219.28 54.0053 218.859 53.3973 218.56 52.704C218.261 52 218.112 51.232 218.112 50.4C218.112 49.568 218.261 48.8053 218.56 48.112C218.859 47.408 219.28 46.8 219.824 46.288C220.368 45.7653 221.008 45.36 221.744 45.072C222.48 44.784 223.28 44.64 224.144 44.64C225.019 44.64 225.819 44.784 226.544 45.072C227.28 45.36 227.92 45.7653 228.464 46.288C229.008 46.8 229.429 47.408 229.728 48.112C230.027 48.8053 230.176 49.568 230.176 50.4C230.176 51.232 230.027 52 229.728 52.704C229.429 53.408 229.008 54.016 228.464 54.528C227.92 55.04 227.28 55.44 226.544 55.728C225.819 56.016 225.024 56.16 224.16 56.16ZM224.144 54.336C224.709 54.336 225.232 54.24 225.712 54.048C226.192 53.856 226.608 53.584 226.96 53.232C227.312 52.8693 227.584 52.4533 227.776 51.984C227.979 51.504 228.08 50.976 228.08 50.4C228.08 49.824 227.979 49.3013 227.776 48.832C227.584 48.352 227.312 47.936 226.96 47.584C226.608 47.2213 226.192 46.944 225.712 46.752C225.232 46.56 224.709 46.464 224.144 46.464C223.579 46.464 223.056 46.56 222.576 46.752C222.107 46.944 221.691 47.2213 221.328 47.584C220.976 47.936 220.699 48.352 220.496 48.832C220.304 49.3013 220.208 49.824 220.208 50.4C220.208 50.9653 220.304 51.488 220.496 51.968C220.699 52.448 220.976 52.8693 221.328 53.232C221.68 53.584 222.096 53.856 222.576 54.048C223.056 54.24 223.579 54.336 224.144 54.336ZM232.141 56V44.8H233.853L240.877 53.424H240.029V44.8H242.093V56H240.381L233.357 47.376H234.205V56H232.141Z" fill="url(#paint10_linear_388_410)"/>
<defs>
<linearGradient id="paint0_linear_388_410" x1="34.7992" y1="3.73176" x2="18.4438" y2="54.7193" gradientUnits="userSpaceOnUse">
<stop stop-color="#1A2587"/>
<stop offset="1" stop-color="#121C71"/>
</linearGradient>
<linearGradient id="paint1_linear_388_410" x1="5.40389" y1="3.78607" x2="21.9611" y2="55.8364" gradientUnits="userSpaceOnUse">
<stop stop-color="#1A2587"/>
<stop offset="1" stop-color="#121C71"/>
</linearGradient>
<linearGradient id="paint2_linear_388_410" x1="50.6982" y1="4.58691" x2="50.6982" y2="54.5869" gradientUnits="userSpaceOnUse">
<stop stop-color="#1A2587"/>
<stop offset="1" stop-color="#121C71"/>
</linearGradient>
<linearGradient id="paint3_linear_388_410" x1="65.6982" y1="4.58691" x2="65.6982" y2="54.5869" gradientUnits="userSpaceOnUse">
<stop stop-color="#1A2587"/>
<stop offset="1" stop-color="#121C71"/>
</linearGradient>
<linearGradient id="paint4_linear_388_410" x1="76.6982" y1="13.5869" x2="76.6982" y2="30.5869" gradientUnits="userSpaceOnUse">
<stop stop-color="#1A2587"/>
<stop offset="1" stop-color="#121C71"/>
</linearGradient>
<linearGradient id="paint5_linear_388_410" x1="76.6982" y1="34.5869" x2="76.6982" y2="51.5869" gradientUnits="userSpaceOnUse">
<stop stop-color="#1A2587"/>
<stop offset="1" stop-color="#121C71"/>
</linearGradient>
<linearGradient id="paint6_linear_388_410" x1="76.6982" y1="54.5869" x2="76.6982" y2="71.5869" gradientUnits="userSpaceOnUse">
<stop stop-color="#1A2587"/>
<stop offset="1" stop-color="#121C71"/>
</linearGradient>
<linearGradient id="paint7_linear_388_410" x1="4.5" y1="0" x2="4.5" y2="50" gradientUnits="userSpaceOnUse">
<stop stop-color="#1A2587"/>
<stop offset="1" stop-color="#121C71"/>
</linearGradient>
<linearGradient id="paint8_linear_388_410" x1="4.5" y1="0" x2="4.5" y2="17" gradientUnits="userSpaceOnUse">
<stop stop-color="#1A2587"/>
<stop offset="1" stop-color="#121C71"/>
</linearGradient>
<linearGradient id="paint9_linear_388_410" x1="4.5" y1="0" x2="4.5" y2="17" gradientUnits="userSpaceOnUse">
<stop stop-color="#1A2587"/>
<stop offset="1" stop-color="#121C71"/>
</linearGradient>
<linearGradient id="paint10_linear_388_410" x1="137.176" y1="5.99999" x2="326.156" y2="95.6656" gradientUnits="userSpaceOnUse">
<stop stop-color="#1A2587"/>
<stop offset="1" stop-color="#131C71"/>
</linearGradient>
</defs>
</svg>
